<svg width="141" height="141" viewBox="0 0 141 141" fill="none" xmlns="http://www.w3.org/2000/svg">
<circle cx="70.5" cy="70.5" r="70.5" fill="white"/>
<circle cx="70" cy="71" r="62" fill="white"/>
<path d="M70.2266 116.954L38.6445 41.8662L49.6553 36.9785L73.9863 99.1758C75.6693 95.5951 77.3164 92.0859 78.9277 88.6484C79.6081 87.2161 80.3063 85.7122 81.0225 84.1367C81.7744 82.5612 82.4906 81.0215 83.1709 79.5176C83.887 78.0137 84.5674 76.5635 85.2119 75.167C85.8923 73.7705 86.501 72.5173 87.0381 71.4072C88.0765 69.223 88.9896 67.0208 89.7773 64.8008C90.6009 62.5449 91.0127 60.1637 91.0127 57.6572C91.0127 55.7236 90.7441 53.8975 90.207 52.1787C89.6699 50.46 88.918 48.8307 87.9512 47.291C87.0202 45.7155 85.8923 44.2474 84.5674 42.8867C83.2425 41.4902 81.7923 40.1833 80.2168 38.9658L89.2402 28.8682C90.7441 29.835 92.1048 31.0345 93.3223 32.4668C94.5397 33.8991 95.5781 35.4388 96.4375 37.0859C97.2969 38.7331 97.9593 40.4339 98.4248 42.1885C98.9261 43.943 99.1768 45.626 99.1768 47.2373C99.1768 50.3883 98.6576 53.4678 97.6191 56.4756C96.6165 59.4476 95.4349 62.348 94.0742 65.1768C93.0358 67.2894 91.9079 69.6527 90.6904 72.2666C89.473 74.8805 88.2018 77.6019 86.877 80.4307C85.5879 83.2236 84.263 86.0703 82.9023 88.9707C81.5775 91.8711 80.3063 94.682 79.0889 97.4033C76.1885 103.777 73.2344 110.294 70.2266 116.954Z" fill="black"/>
</svg>
