<svg width="141" height="141" viewBox="0 0 141 141" fill="none" xmlns="http://www.w3.org/2000/svg">
<mask id="mask0" mask-type="alpha" maskUnits="userSpaceOnUse" x="0" y="0" width="141" height="141">
<circle cx="70" cy="71" r="62" fill="black"/>
<path d="M70.2266 116.954L38.6445 41.8662L49.6553 36.9785L73.9863 99.1758C75.6693 95.5951 77.3164 92.0859 78.9277 88.6484C79.6081 87.2161 80.3063 85.7122 81.0225 84.1367C81.7744 82.5612 82.4906 81.0215 83.1709 79.5176C83.887 78.0137 84.5674 76.5635 85.2119 75.167C85.8923 73.7705 86.501 72.5173 87.0381 71.4072C88.0765 69.223 88.9896 67.0208 89.7773 64.8008C90.6009 62.5449 91.0127 60.1637 91.0127 57.6572C91.0127 55.7236 90.7441 53.8975 90.207 52.1787C89.6699 50.46 88.918 48.8307 87.9512 47.291C87.0202 45.7155 85.8923 44.2474 84.5674 42.8867C83.2425 41.4902 81.7923 40.1833 80.2168 38.9658L89.2402 28.8682C90.7441 29.835 92.1048 31.0345 93.3223 32.4668C94.5397 33.8991 95.5781 35.4388 96.4375 37.0859C97.2969 38.7331 97.9593 40.4339 98.4248 42.1885C98.9261 43.943 99.1768 45.626 99.1768 47.2373C99.1768 50.3883 98.6576 53.4678 97.6191 56.4756C96.6165 59.4476 95.4349 62.348 94.0742 65.1768C93.0358 67.2894 91.9079 69.6527 90.6904 72.2666C89.473 74.8805 88.2018 77.6019 86.877 80.4307C85.5879 83.2236 84.263 86.0703 82.9023 88.9707C81.5775 91.8711 80.3063 94.682 79.0889 97.4033C76.1885 103.777 73.2344 110.294 70.2266 116.954Z" fill="black"/>
<path fill-rule="evenodd" clip-rule="evenodd" d="M70.5 141C109.436 141 141 109.436 141 70.5C141 31.5639 109.436 0 70.5 0C31.5639 0 0 31.5639 0 70.5C0 109.436 31.5639 141 70.5 141ZM70 133C104.242 133 132 105.242 132 71C132 36.7583 104.242 9 70 9C35.7583 9 8 36.7583 8 71C8 105.242 35.7583 133 70 133Z" fill="white"/>
</mask>
<g mask="url(#mask0)">
<rect x="-65" y="13" width="270" height="29" fill="#7BF7FF"/>
<rect x="-65" width="270" height="13" fill="#A276FF"/>
<rect x="-65" y="42" width="270" height="29" fill="#93FF6D"/>
<rect x="-65" y="71" width="270" height="29" fill="#FFF974"/>
<rect x="-65" y="100" width="270" height="29" fill="#FFBE5E"/>
<rect x="-65" y="129" width="270" height="12" fill="#FB6666"/>
<path d="M69.1562 118.223L34.7031 36.3086L46.7148 30.9766L73.2578 98.8281C75.0938 94.9219 76.8906 91.0938 78.6484 87.3438C79.3906 85.7812 80.1523 84.1406 80.9336 82.4219C81.7539 80.7031 82.5352 79.0234 83.2773 77.3828C84.0586 75.7422 84.8008 74.1602 85.5039 72.6367C86.2461 71.1133 86.9102 69.7461 87.4961 68.5352C88.6289 66.1523 89.625 63.75 90.4844 61.3281C91.3828 58.8672 91.832 56.2695 91.832 53.5352C91.832 51.4258 91.5391 49.4336 90.9531 47.5586C90.3672 45.6836 89.5469 43.9063 88.4922 42.2266C87.4766 40.5078 86.2461 38.9062 84.8008 37.4219C83.3555 35.8984 81.7734 34.4727 80.0547 33.1445L89.8984 22.1289C91.5391 23.1836 93.0234 24.4922 94.3516 26.0547C95.6797 27.6172 96.8125 29.2969 97.75 31.0938C98.6875 32.8906 99.4102 34.7461 99.918 36.6602C100.465 38.5742 100.738 40.4102 100.738 42.168C100.738 45.6055 100.172 48.9648 99.0391 52.2461C97.9453 55.4883 96.6562 58.6523 95.1719 61.7383C94.0391 64.043 92.8086 66.6211 91.4805 69.4727C90.1523 72.3242 88.7656 75.293 87.3203 78.3789C85.9141 81.4258 84.4688 84.5312 82.9844 87.6953C81.5391 90.8594 80.1523 93.9258 78.8242 96.8945C75.6602 103.848 72.4375 110.957 69.1562 118.223Z" fill="black"/>
</g>
</svg>
